<svg width="1403" height="704" viewBox="0 0 1403 704" fill="none" xmlns="http://www.w3.org/2000/svg">
<style>
.circle {
	transform: rotate(-90deg);
	transform-origin: center;
}
</style>
<g id="Stat3" filter="url(#filter0_d_0_1)"><!--Full value: 800 - Empty Value: 2000-->
<circle class="circle" cx="700" cy="833" r="190" stroke="url(#paint0_angular_0_1)" stroke-width="40" stroke-dasharray="2000" stroke-dashoffset="1600"/>
</g>
<g id="Stat2" filter="url(#filter1_d_0_1)">
<mask id="path-2-inside-2_0_1" fill="white">
<path d="M984 352C984 242.648 1072.65 154 1182 154C1291.35 154 1380 242.648 1380 352C1380 461.352 1291.35 550 1182 550C1072.65 550 984 461.352 984 352ZM1360.2 352C1360.2 253.583 1280.42 173.8 1182 173.8C1083.58 173.8 1003.8 253.583 1003.8 352C1003.8 450.417 1083.58 530.2 1182 530.2C1280.42 530.2 1360.2 450.417 1360.2 352Z"/>
</mask>
<path d="M984 352C984 242.648 1072.65 154 1182 154C1291.35 154 1380 242.648 1380 352C1380 461.352 1291.35 550 1182 550C1072.65 550 984 461.352 984 352ZM1360.2 352C1360.2 253.583 1280.42 173.8 1182 173.8C1083.58 173.8 1003.8 253.583 1003.8 352C1003.8 450.417 1083.58 530.2 1182 530.2C1280.42 530.2 1360.2 450.417 1360.2 352Z" stroke="#777272" stroke-width="40" shape-rendering="crispEdges" mask="url(#path-2-inside-2_0_1)"/>
</g>
<g id="Stat1" filter="url(#filter2_d_0_1)">
<path d="M1182 182C1204.32 182 1226.43 186.397 1247.06 194.94C1267.68 203.484 1286.42 216.006 1302.21 231.792C1317.99 247.578 1330.52 266.318 1339.06 286.944C1347.6 307.569 1352 329.675 1352 352C1352 374.325 1347.6 396.431 1339.06 417.056C1330.52 437.682 1317.99 456.422 1302.21 472.208C1286.42 487.994 1267.68 500.516 1247.06 509.06C1226.43 517.603 1204.32 522 1182 522C1159.68 522 1137.57 517.603 1116.94 509.06C1096.32 500.516 1077.58 487.994 1061.79 472.208C1046.01 456.422 1033.48 437.682 1024.94 417.056C1016.4 396.431 1012 374.325 1012 352C1012 329.675 1016.4 307.569 1024.94 286.944C1033.48 266.318 1046.01 247.578 1061.79 231.792C1077.58 216.006 1096.32 203.484 1116.94 194.94C1137.57 186.397 1159.68 182 1182 182L1182 182Z" stroke="black" stroke-width="20"/>
</g>
<path id="Subtract" d="M1342.5 678C1342.5 691.531 1331.53 702.5 1318 702.5L26.0001 702.5C12.4691 702.5 1.50006 691.531 1.50006 678L1.5 26.0001C1.5 12.4691 12.4691 1.50005 26 1.50005L1318 1.49994C1331.53 1.49994 1342.5 12.469 1342.5 25.9999V95.4932C1342.5 102.078 1337.17 107.461 1330.5 107.866C1326.03 107.623 1321.53 107.5 1317 107.5L1316.69 107.5C1303.24 107.517 1289.76 107.517 1276.31 107.5L1276 107.5C1272.65 107.5 1269.32 107.567 1266 107.701C1262.68 107.567 1259.35 107.5 1256 107.5L1255.69 107.5C1242.9 107.516 1230.1 107.516 1217.31 107.5L1217 107.5L1216.69 107.5C1202.9 107.517 1189.1 107.517 1175.31 107.5L1175 107.5C1039.97 107.5 930.5 216.966 930.5 352C930.5 487.034 1039.97 596.5 1175 596.5L1175.31 596.5C1189.1 596.483 1202.9 596.483 1216.69 596.5L1217 596.5L1217.31 596.5C1230.1 596.484 1242.9 596.484 1255.69 596.5L1256 596.5C1259.35 596.5 1262.68 596.433 1266 596.299C1269.32 596.432 1272.65 596.5 1276 596.5L1276.31 596.5C1289.76 596.483 1303.24 596.483 1316.69 596.5L1317 596.5C1321.53 596.5 1326.03 596.377 1330.5 596.134C1337.17 596.539 1342.5 601.922 1342.5 608.507V678Z" fill="#C4C4C4" stroke="black" stroke-width="3"/>
<path id="Stats" d="M69.072 92.448C66.128 92.448 63.4827 91.936 61.136 90.912C58.832 89.8453 57.0187 88.3947 55.696 86.56C54.3733 84.6827 53.6907 82.528 53.648 80.096H59.856C60.0693 82.1867 60.9227 83.9573 62.416 85.408C63.952 86.816 66.1707 87.52 69.072 87.52C71.8453 87.52 74.0213 86.8373 75.6 85.472C77.2213 84.064 78.032 82.272 78.032 80.096C78.032 78.3893 77.5627 77.0027 76.624 75.936C75.6853 74.8693 74.512 74.0587 73.104 73.504C71.696 72.9493 69.7973 72.352 67.408 71.712C64.464 70.944 62.096 70.176 60.304 69.408C58.5547 68.64 57.04 67.4453 55.76 65.824C54.5227 64.16 53.904 61.9413 53.904 59.168C53.904 56.736 54.5227 54.5813 55.76 52.704C56.9973 50.8267 58.7253 49.376 60.944 48.352C63.2053 47.328 65.7867 46.816 68.688 46.816C72.8693 46.816 76.2827 47.8613 78.928 49.952C81.616 52.0427 83.1307 54.816 83.472 58.272H77.072C76.8587 56.5653 75.9627 55.072 74.384 53.792C72.8053 52.4693 70.7147 51.808 68.112 51.808C65.68 51.808 63.696 52.448 62.16 53.728C60.624 54.9653 59.856 56.7147 59.856 58.976C59.856 60.5973 60.304 61.92 61.2 62.944C62.1387 63.968 63.2693 64.7573 64.592 65.312C65.9573 65.824 67.856 66.4213 70.288 67.104C73.232 67.9147 75.6 68.7253 77.392 69.536C79.184 70.304 80.72 71.52 82 73.184C83.28 74.8053 83.92 77.024 83.92 79.84C83.92 82.016 83.344 84.064 82.192 85.984C81.04 87.904 79.3333 89.4613 77.072 90.656C74.8107 91.8507 72.144 92.448 69.072 92.448ZM99.5945 61.728V82.4C99.5945 84.1067 99.9572 85.3227 100.683 86.048C101.408 86.7307 102.667 87.072 104.458 87.072H108.747V92H103.499C100.256 92 97.8238 91.2533 96.2025 89.76C94.5812 88.2667 93.7705 85.8133 93.7705 82.4V61.728H89.2265V56.928H93.7705V48.096H99.5945V56.928H108.747V61.728H99.5945ZM113.627 74.336C113.627 70.752 114.352 67.616 115.803 64.928C117.254 62.1973 119.238 60.0853 121.755 58.592C124.315 57.0987 127.152 56.352 130.267 56.352C133.339 56.352 136.006 57.0133 138.267 58.336C140.528 59.6587 142.214 61.3227 143.323 63.328V56.928H149.211V92H143.323V85.472C142.171 87.52 140.443 89.2267 138.139 90.592C135.878 91.9147 133.232 92.576 130.203 92.576C127.088 92.576 124.272 91.808 121.755 90.272C119.238 88.736 117.254 86.5813 115.803 83.808C114.352 81.0347 113.627 77.8773 113.627 74.336ZM143.323 74.4C143.323 71.7547 142.79 69.4507 141.723 67.488C140.656 65.5253 139.206 64.032 137.371 63.008C135.579 61.9413 133.595 61.408 131.419 61.408C129.243 61.408 127.259 61.92 125.467 62.944C123.675 63.968 122.246 65.4613 121.179 67.424C120.112 69.3867 119.579 71.6907 119.579 74.336C119.579 77.024 120.112 79.3707 121.179 81.376C122.246 83.3387 123.675 84.8533 125.467 85.92C127.259 86.944 129.243 87.456 131.419 87.456C133.595 87.456 135.579 86.944 137.371 85.92C139.206 84.8533 140.656 83.3387 141.723 81.376C142.79 79.3707 143.323 77.0453 143.323 74.4ZM166.157 61.728V82.4C166.157 84.1067 166.52 85.3227 167.245 86.048C167.97 86.7307 169.229 87.072 171.021 87.072H175.309V92H170.061C166.818 92 164.386 91.2533 162.765 89.76C161.144 88.2667 160.333 85.8133 160.333 82.4V61.728H155.789V56.928H160.333V48.096H166.157V56.928H175.309V61.728H166.157ZM194.782 92.576C192.094 92.576 189.683 92.128 187.55 91.232C185.416 90.2933 183.731 89.0133 182.494 87.392C181.256 85.728 180.574 83.8293 180.446 81.696H186.462C186.632 83.4453 187.443 84.8747 188.894 85.984C190.387 87.0933 192.328 87.648 194.718 87.648C196.936 87.648 198.686 87.1573 199.966 86.176C201.246 85.1947 201.886 83.9573 201.886 82.464C201.886 80.928 201.203 79.7973 199.838 79.072C198.472 78.304 196.36 77.5573 193.502 76.832C190.899 76.1493 188.766 75.4667 187.102 74.784C185.48 74.0587 184.072 73.0133 182.878 71.648C181.726 70.24 181.15 68.4053 181.15 66.144C181.15 64.352 181.683 62.7093 182.75 61.216C183.816 59.7227 185.331 58.5493 187.294 57.696C189.256 56.8 191.496 56.352 194.014 56.352C197.896 56.352 201.032 57.3333 203.422 59.296C205.811 61.2587 207.091 63.9467 207.262 67.36H201.438C201.31 65.5253 200.563 64.0533 199.198 62.944C197.875 61.8347 196.083 61.28 193.822 61.28C191.731 61.28 190.067 61.728 188.83 62.624C187.592 63.52 186.974 64.6933 186.974 66.144C186.974 67.296 187.336 68.256 188.062 69.024C188.83 69.7493 189.768 70.3467 190.878 70.816C192.03 71.2427 193.608 71.7333 195.614 72.288C198.131 72.9707 200.179 73.6533 201.758 74.336C203.336 74.976 204.68 75.9573 205.79 77.28C206.942 78.6027 207.539 80.3307 207.582 82.464C207.582 84.384 207.048 86.112 205.982 87.648C204.915 89.184 203.4 90.4 201.438 91.296C199.518 92.1493 197.299 92.576 194.782 92.576Z" fill="black"/>
<line id="Line 1" x1="19" y1="108.5" x2="342" y2="108.5" stroke="black"/>
<path id="Progress" d="M1064.75 630.448C1064.75 634.16 1063.47 637.253 1060.91 639.728C1058.39 642.16 1054.53 643.376 1049.33 643.376H1040.75V662H1034.93V617.392H1049.33C1054.36 617.392 1058.18 618.608 1060.78 621.04C1063.43 623.472 1064.75 626.608 1064.75 630.448ZM1049.33 638.576C1052.57 638.576 1054.96 637.872 1056.5 636.464C1058.03 635.056 1058.8 633.051 1058.8 630.448C1058.8 624.944 1055.64 622.192 1049.33 622.192H1040.75V638.576H1049.33ZM1077.81 632.624C1078.84 630.619 1080.29 629.061 1082.17 627.952C1084.09 626.843 1086.41 626.288 1089.14 626.288V632.304H1087.61C1081.08 632.304 1077.81 635.845 1077.81 642.928V662H1071.99V626.928H1077.81V632.624ZM1111.16 662.576C1107.88 662.576 1104.89 661.829 1102.2 660.336C1099.56 658.843 1097.47 656.731 1095.93 654C1094.44 651.227 1093.69 648.027 1093.69 644.4C1093.69 640.816 1094.46 637.659 1095.99 634.928C1097.57 632.155 1099.71 630.043 1102.39 628.592C1105.08 627.099 1108.09 626.352 1111.42 626.352C1114.75 626.352 1117.75 627.099 1120.44 628.592C1123.13 630.043 1125.24 632.133 1126.78 634.864C1128.36 637.595 1129.15 640.773 1129.15 644.4C1129.15 648.027 1128.33 651.227 1126.71 654C1125.13 656.731 1122.98 658.843 1120.25 660.336C1117.52 661.829 1114.49 662.576 1111.16 662.576ZM1111.16 657.456C1113.25 657.456 1115.21 656.965 1117.05 655.984C1118.88 655.003 1120.36 653.531 1121.47 651.568C1122.62 649.605 1123.19 647.216 1123.19 644.4C1123.19 641.584 1122.64 639.195 1121.53 637.232C1120.42 635.269 1118.97 633.819 1117.18 632.88C1115.39 631.899 1113.44 631.408 1111.35 631.408C1109.22 631.408 1107.26 631.899 1105.47 632.88C1103.72 633.819 1102.31 635.269 1101.24 637.232C1100.17 639.195 1099.64 641.584 1099.64 644.4C1099.64 647.259 1100.15 649.669 1101.18 651.632C1102.24 653.595 1103.65 655.067 1105.4 656.048C1107.15 656.987 1109.07 657.456 1111.16 657.456ZM1151.27 626.352C1154.3 626.352 1156.94 627.013 1159.2 628.336C1161.51 629.659 1163.21 631.323 1164.32 633.328V626.928H1170.21V662.768C1170.21 665.968 1169.53 668.805 1168.16 671.28C1166.8 673.797 1164.84 675.76 1162.28 677.168C1159.76 678.576 1156.81 679.28 1153.44 679.28C1148.84 679.28 1145 678.192 1141.92 676.016C1138.85 673.84 1137.04 670.875 1136.48 667.12H1142.24C1142.88 669.253 1144.21 670.96 1146.21 672.24C1148.22 673.563 1150.63 674.224 1153.44 674.224C1156.64 674.224 1159.25 673.221 1161.25 671.216C1163.3 669.211 1164.32 666.395 1164.32 662.768V655.408C1163.17 657.456 1161.46 659.163 1159.2 660.528C1156.94 661.893 1154.3 662.576 1151.27 662.576C1148.15 662.576 1145.32 661.808 1142.76 660.272C1140.24 658.736 1138.25 656.581 1136.8 653.808C1135.35 651.035 1134.63 647.877 1134.63 644.336C1134.63 640.752 1135.35 637.616 1136.8 634.928C1138.25 632.197 1140.24 630.085 1142.76 628.592C1145.32 627.099 1148.15 626.352 1151.27 626.352ZM1164.32 644.4C1164.32 641.755 1163.79 639.451 1162.72 637.488C1161.66 635.525 1160.21 634.032 1158.37 633.008C1156.58 631.941 1154.6 631.408 1152.42 631.408C1150.24 631.408 1148.26 631.92 1146.47 632.944C1144.68 633.968 1143.25 635.461 1142.18 637.424C1141.11 639.387 1140.58 641.691 1140.58 644.336C1140.58 647.024 1141.11 649.371 1142.18 651.376C1143.25 653.339 1144.68 654.853 1146.47 655.92C1148.26 656.944 1150.24 657.456 1152.42 657.456C1154.6 657.456 1156.58 656.944 1158.37 655.92C1160.21 654.853 1161.66 653.339 1162.72 651.376C1163.79 649.371 1164.32 647.045 1164.32 644.4ZM1185.88 632.624C1186.9 630.619 1188.35 629.061 1190.23 627.952C1192.15 626.843 1194.47 626.288 1197.21 626.288V632.304H1195.67C1189.14 632.304 1185.88 635.845 1185.88 642.928V662H1180.05V626.928H1185.88V632.624ZM1235.93 643.12C1235.93 644.229 1235.86 645.403 1235.74 646.64H1207.7C1207.92 650.096 1209.09 652.805 1211.22 654.768C1213.4 656.688 1216.02 657.648 1219.1 657.648C1221.61 657.648 1223.7 657.072 1225.37 655.92C1227.07 654.725 1228.27 653.147 1228.95 651.184H1235.22C1234.29 654.555 1232.41 657.307 1229.59 659.44C1226.78 661.531 1223.28 662.576 1219.1 662.576C1215.77 662.576 1212.78 661.829 1210.14 660.336C1207.53 658.843 1205.49 656.731 1203.99 654C1202.5 651.227 1201.75 648.027 1201.75 644.4C1201.75 640.773 1202.48 637.595 1203.93 634.864C1205.38 632.133 1207.41 630.043 1210.01 628.592C1212.65 627.099 1215.68 626.352 1219.1 626.352C1222.42 626.352 1225.37 627.077 1227.93 628.528C1230.49 629.979 1232.45 631.984 1233.82 634.544C1235.22 637.061 1235.93 639.92 1235.93 643.12ZM1229.91 641.904C1229.91 639.685 1229.42 637.787 1228.44 636.208C1227.46 634.587 1226.11 633.371 1224.41 632.56C1222.74 631.707 1220.89 631.28 1218.84 631.28C1215.9 631.28 1213.38 632.219 1211.29 634.096C1209.24 635.973 1208.07 638.576 1207.77 641.904H1229.91ZM1256.03 662.576C1253.34 662.576 1250.93 662.128 1248.8 661.232C1246.67 660.293 1244.98 659.013 1243.74 657.392C1242.51 655.728 1241.82 653.829 1241.7 651.696H1247.71C1247.88 653.445 1248.69 654.875 1250.14 655.984C1251.64 657.093 1253.58 657.648 1255.97 657.648C1258.19 657.648 1259.94 657.157 1261.22 656.176C1262.5 655.195 1263.14 653.957 1263.14 652.464C1263.14 650.928 1262.45 649.797 1261.09 649.072C1259.72 648.304 1257.61 647.557 1254.75 646.832C1252.15 646.149 1250.02 645.467 1248.35 644.784C1246.73 644.059 1245.32 643.013 1244.13 641.648C1242.98 640.24 1242.4 638.405 1242.4 636.144C1242.4 634.352 1242.93 632.709 1244 631.216C1245.07 629.723 1246.58 628.549 1248.54 627.696C1250.51 626.8 1252.75 626.352 1255.26 626.352C1259.15 626.352 1262.28 627.333 1264.67 629.296C1267.06 631.259 1268.34 633.947 1268.51 637.36H1262.69C1262.56 635.525 1261.81 634.053 1260.45 632.944C1259.12 631.835 1257.33 631.28 1255.07 631.28C1252.98 631.28 1251.32 631.728 1250.08 632.624C1248.84 633.52 1248.22 634.693 1248.22 636.144C1248.22 637.296 1248.59 638.256 1249.31 639.024C1250.08 639.749 1251.02 640.347 1252.13 640.816C1253.28 641.243 1254.86 641.733 1256.86 642.288C1259.38 642.971 1261.43 643.653 1263.01 644.336C1264.59 644.976 1265.93 645.957 1267.04 647.28C1268.19 648.603 1268.79 650.331 1268.83 652.464C1268.83 654.384 1268.3 656.112 1267.23 657.648C1266.16 659.184 1264.65 660.4 1262.69 661.296C1260.77 662.149 1258.55 662.576 1256.03 662.576ZM1289.47 662.576C1286.78 662.576 1284.37 662.128 1282.24 661.232C1280.1 660.293 1278.42 659.013 1277.18 657.392C1275.94 655.728 1275.26 653.829 1275.13 651.696H1281.15C1281.32 653.445 1282.13 654.875 1283.58 655.984C1285.07 657.093 1287.02 657.648 1289.41 657.648C1291.62 657.648 1293.37 657.157 1294.65 656.176C1295.93 655.195 1296.57 653.957 1296.57 652.464C1296.57 650.928 1295.89 649.797 1294.53 649.072C1293.16 648.304 1291.05 647.557 1288.19 646.832C1285.59 646.149 1283.45 645.467 1281.79 644.784C1280.17 644.059 1278.76 643.013 1277.57 641.648C1276.41 640.24 1275.84 638.405 1275.84 636.144C1275.84 634.352 1276.37 632.709 1277.44 631.216C1278.5 629.723 1280.02 628.549 1281.98 627.696C1283.94 626.8 1286.18 626.352 1288.7 626.352C1292.58 626.352 1295.72 627.333 1298.11 629.296C1300.5 631.259 1301.78 633.947 1301.95 637.36H1296.13C1296 635.525 1295.25 634.053 1293.89 632.944C1292.56 631.835 1290.77 631.28 1288.51 631.28C1286.42 631.28 1284.75 631.728 1283.52 632.624C1282.28 633.52 1281.66 634.693 1281.66 636.144C1281.66 637.296 1282.02 638.256 1282.75 639.024C1283.52 639.749 1284.46 640.347 1285.57 640.816C1286.72 641.243 1288.3 641.733 1290.3 642.288C1292.82 642.971 1294.87 643.653 1296.45 644.336C1298.02 644.976 1299.37 645.957 1300.48 647.28C1301.63 648.603 1302.23 650.331 1302.27 652.464C1302.27 654.384 1301.74 656.112 1300.67 657.648C1299.6 659.184 1298.09 660.4 1296.13 661.296C1294.21 662.149 1291.99 662.576 1289.47 662.576Z" fill="black"/>
<path id="Rectangle 1" d="M237.382 570V703H111.757H25C11.7452 703 1 692.255 1 679V594C1 580.745 11.7452 570 25 570H111.757H237.382ZM239.382 703V570H356.419H466.279V703H356.419H239.382ZM468.279 703V570H578.14H664C677.255 570 688 580.745 688 594V679C688 692.255 677.255 703 664 703H578.14H468.279Z" stroke="black" stroke-width="2"/>
<path id="Commit Goal" d="M43.032 672.624C43.032 670.992 43.4 669.528 44.136 668.232C44.872 666.92 45.872 665.896 47.136 665.16C48.416 664.424 49.832 664.056 51.384 664.056C53.208 664.056 54.8 664.496 56.16 665.376C57.52 666.256 58.512 667.504 59.136 669.12H56.52C56.056 668.112 55.384 667.336 54.504 666.792C53.64 666.248 52.6 665.976 51.384 665.976C50.216 665.976 49.168 666.248 48.24 666.792C47.312 667.336 46.584 668.112 46.056 669.12C45.528 670.112 45.264 671.28 45.264 672.624C45.264 673.952 45.528 675.12 46.056 676.128C46.584 677.12 47.312 677.888 48.24 678.432C49.168 678.976 50.216 679.248 51.384 679.248C52.6 679.248 53.64 678.984 54.504 678.456C55.384 677.912 56.056 677.136 56.52 676.128H59.136C58.512 677.728 57.52 678.968 56.16 679.848C54.8 680.712 53.208 681.144 51.384 681.144C49.832 681.144 48.416 680.784 47.136 680.064C45.872 679.328 44.872 678.312 44.136 677.016C43.4 675.72 43.032 674.256 43.032 672.624ZM68.1231 681.216C66.8911 681.216 65.7711 680.936 64.7631 680.376C63.7711 679.816 62.9871 679.024 62.4111 678C61.8511 676.96 61.5711 675.76 61.5711 674.4C61.5711 673.056 61.8591 671.872 62.4351 670.848C63.0271 669.808 63.8271 669.016 64.8351 668.472C65.8431 667.912 66.9711 667.632 68.2191 667.632C69.4671 667.632 70.5951 667.912 71.6031 668.472C72.6111 669.016 73.4031 669.8 73.9791 670.824C74.5711 671.848 74.8671 673.04 74.8671 674.4C74.8671 675.76 74.5631 676.96 73.9551 678C73.3631 679.024 72.5551 679.816 71.5311 680.376C70.5071 680.936 69.3711 681.216 68.1231 681.216ZM68.1231 679.296C68.9071 679.296 69.6431 679.112 70.3311 678.744C71.0191 678.376 71.5711 677.824 71.9871 677.088C72.4191 676.352 72.6351 675.456 72.6351 674.4C72.6351 673.344 72.4271 672.448 72.0111 671.712C71.5951 670.976 71.0511 670.432 70.3791 670.08C69.7071 669.712 68.9791 669.528 68.1951 669.528C67.3951 669.528 66.6591 669.712 65.9871 670.08C65.3311 670.432 64.8031 670.976 64.4031 671.712C64.0031 672.448 63.8031 673.344 63.8031 674.4C63.8031 675.472 63.9951 676.376 64.3791 677.112C64.7791 677.848 65.3071 678.4 65.9631 678.768C66.6191 679.12 67.3391 679.296 68.1231 679.296ZM93.5546 667.608C94.5786 667.608 95.4906 667.824 96.2906 668.256C97.0906 668.672 97.7226 669.304 98.1866 670.152C98.6506 671 98.8826 672.032 98.8826 673.248V681H96.7226V673.56C96.7226 672.248 96.3946 671.248 95.7386 670.56C95.0986 669.856 94.2266 669.504 93.1226 669.504C91.9866 669.504 91.0826 669.872 90.4106 670.608C89.7386 671.328 89.4026 672.376 89.4026 673.752V681H87.2426V673.56C87.2426 672.248 86.9146 671.248 86.2586 670.56C85.6186 669.856 84.7466 669.504 83.6426 669.504C82.5066 669.504 81.6026 669.872 80.9306 670.608C80.2586 671.328 79.9226 672.376 79.9226 673.752V681H77.7386V667.848H79.9226V669.744C80.3546 669.056 80.9306 668.528 81.6506 668.16C82.3866 667.792 83.1946 667.608 84.0746 667.608C85.1786 667.608 86.1546 667.856 87.0026 668.352C87.8506 668.848 88.4826 669.576 88.8986 670.536C89.2666 669.608 89.8746 668.888 90.7226 668.376C91.5706 667.864 92.5146 667.608 93.5546 667.608ZM118.281 667.608C119.305 667.608 120.217 667.824 121.017 668.256C121.817 668.672 122.449 669.304 122.913 670.152C123.377 671 123.609 672.032 123.609 673.248V681H121.449V673.56C121.449 672.248 121.121 671.248 120.465 670.56C119.825 669.856 118.953 669.504 117.849 669.504C116.713 669.504 115.809 669.872 115.137 670.608C114.465 671.328 114.129 672.376 114.129 673.752V681H111.969V673.56C111.969 672.248 111.641 671.248 110.985 670.56C110.345 669.856 109.473 669.504 108.369 669.504C107.233 669.504 106.329 669.872 105.657 670.608C104.985 671.328 104.649 672.376 104.649 673.752V681H102.465V667.848H104.649V669.744C105.081 669.056 105.657 668.528 106.377 668.16C107.113 667.792 107.921 667.608 108.801 667.608C109.905 667.608 110.881 667.856 111.729 668.352C112.577 668.848 113.209 669.576 113.625 670.536C113.993 669.608 114.601 668.888 115.449 668.376C116.297 667.864 117.241 667.608 118.281 667.608ZM128.32 665.712C127.904 665.712 127.552 665.568 127.264 665.28C126.976 664.992 126.832 664.64 126.832 664.224C126.832 663.808 126.976 663.456 127.264 663.168C127.552 662.88 127.904 662.736 128.32 662.736C128.72 662.736 129.056 662.88 129.328 663.168C129.616 663.456 129.76 663.808 129.76 664.224C129.76 664.64 129.616 664.992 129.328 665.28C129.056 665.568 128.72 665.712 128.32 665.712ZM129.376 667.848V681H127.192V667.848H129.376ZM135.762 669.648V677.4C135.762 678.04 135.898 678.496 136.17 678.768C136.442 679.024 136.914 679.152 137.586 679.152H139.194V681H137.226C136.01 681 135.098 680.72 134.49 680.16C133.882 679.6 133.578 678.68 133.578 677.4V669.648H131.874V667.848H133.578V664.536H135.762V667.848H139.194V669.648H135.762ZM160.911 669.12C160.447 668.144 159.775 667.392 158.895 666.864C158.015 666.32 156.991 666.048 155.823 666.048C154.655 666.048 153.599 666.32 152.655 666.864C151.727 667.392 150.991 668.16 150.447 669.168C149.919 670.16 149.655 671.312 149.655 672.624C149.655 673.936 149.919 675.088 150.447 676.08C150.991 677.072 151.727 677.84 152.655 678.384C153.599 678.912 154.655 679.176 155.823 679.176C157.455 679.176 158.799 678.688 159.855 677.712C160.911 676.736 161.527 675.416 161.703 673.752H155.031V671.976H164.031V673.656C163.903 675.032 163.471 676.296 162.735 677.448C161.999 678.584 161.031 679.488 159.831 680.16C158.631 680.816 157.295 681.144 155.823 681.144C154.271 681.144 152.855 680.784 151.575 680.064C150.295 679.328 149.279 678.312 148.527 677.016C147.791 675.72 147.423 674.256 147.423 672.624C147.423 670.992 147.791 669.528 148.527 668.232C149.279 666.92 150.295 665.904 151.575 665.184C152.855 664.448 154.271 664.08 155.823 664.08C157.599 664.08 159.167 664.52 160.527 665.4C161.903 666.28 162.903 667.52 163.527 669.12H160.911ZM172.654 681.216C171.422 681.216 170.302 680.936 169.294 680.376C168.302 679.816 167.518 679.024 166.942 678C166.382 676.96 166.102 675.76 166.102 674.4C166.102 673.056 166.39 671.872 166.966 670.848C167.558 669.808 168.358 669.016 169.366 668.472C170.374 667.912 171.502 667.632 172.75 667.632C173.998 667.632 175.126 667.912 176.134 668.472C177.142 669.016 177.934 669.8 178.51 670.824C179.102 671.848 179.398 673.04 179.398 674.4C179.398 675.76 179.094 676.96 178.486 678C177.894 679.024 177.086 679.816 176.062 680.376C175.038 680.936 173.902 681.216 172.654 681.216ZM172.654 679.296C173.438 679.296 174.174 679.112 174.862 678.744C175.55 678.376 176.102 677.824 176.518 677.088C176.95 676.352 177.166 675.456 177.166 674.4C177.166 673.344 176.958 672.448 176.542 671.712C176.126 670.976 175.582 670.432 174.91 670.08C174.238 669.712 173.51 669.528 172.726 669.528C171.926 669.528 171.19 669.712 170.518 670.08C169.862 670.432 169.334 670.976 168.934 671.712C168.534 672.448 168.334 673.344 168.334 674.4C168.334 675.472 168.526 676.376 168.91 677.112C169.31 677.848 169.838 678.4 170.494 678.768C171.15 679.12 171.87 679.296 172.654 679.296ZM181.454 674.376C181.454 673.032 181.726 671.856 182.27 670.848C182.814 669.824 183.558 669.032 184.502 668.472C185.462 667.912 186.526 667.632 187.694 667.632C188.846 667.632 189.846 667.88 190.694 668.376C191.542 668.872 192.174 669.496 192.59 670.248V667.848H194.798V681H192.59V678.552C192.158 679.32 191.51 679.96 190.646 680.472C189.798 680.968 188.806 681.216 187.67 681.216C186.502 681.216 185.446 680.928 184.502 680.352C183.558 679.776 182.814 678.968 182.27 677.928C181.726 676.888 181.454 675.704 181.454 674.376ZM192.59 674.4C192.59 673.408 192.39 672.544 191.99 671.808C191.59 671.072 191.046 670.512 190.358 670.128C189.686 669.728 188.942 669.528 188.126 669.528C187.31 669.528 186.566 669.72 185.894 670.104C185.222 670.488 184.686 671.048 184.286 671.784C183.886 672.52 183.686 673.384 183.686 674.376C183.686 675.384 183.886 676.264 184.286 677.016C184.686 677.752 185.222 678.32 185.894 678.72C186.566 679.104 187.31 679.296 188.126 679.296C188.942 679.296 189.686 679.104 190.358 678.72C191.046 678.32 191.59 677.752 191.99 677.016C192.39 676.264 192.59 675.392 192.59 674.4ZM200.673 663.24V681H198.489V663.24H200.673Z" fill="black"/>
<path id="Additions Goal" d="M499.736 684.28H492.44L491.096 688H488.792L494.84 671.368H497.36L503.384 688H501.08L499.736 684.28ZM499.112 682.504L496.088 674.056L493.064 682.504H499.112ZM505.204 681.376C505.204 680.032 505.476 678.856 506.02 677.848C506.564 676.824 507.308 676.032 508.252 675.472C509.212 674.912 510.284 674.632 511.468 674.632C512.492 674.632 513.444 674.872 514.324 675.352C515.204 675.816 515.876 676.432 516.34 677.2V670.24H518.548V688H516.34V685.528C515.908 686.312 515.268 686.96 514.42 687.472C513.572 687.968 512.58 688.216 511.444 688.216C510.276 688.216 509.212 687.928 508.252 687.352C507.308 686.776 506.564 685.968 506.02 684.928C505.476 683.888 505.204 682.704 505.204 681.376ZM516.34 681.4C516.34 680.408 516.14 679.544 515.74 678.808C515.34 678.072 514.796 677.512 514.108 677.128C513.436 676.728 512.692 676.528 511.876 676.528C511.06 676.528 510.316 676.72 509.644 677.104C508.972 677.488 508.436 678.048 508.036 678.784C507.636 679.52 507.436 680.384 507.436 681.376C507.436 682.384 507.636 683.264 508.036 684.016C508.436 684.752 508.972 685.32 509.644 685.72C510.316 686.104 511.06 686.296 511.876 686.296C512.692 686.296 513.436 686.104 514.108 685.72C514.796 685.32 515.34 684.752 515.74 684.016C516.14 683.264 516.34 682.392 516.34 681.4ZM521.423 681.376C521.423 680.032 521.695 678.856 522.239 677.848C522.783 676.824 523.527 676.032 524.471 675.472C525.431 674.912 526.503 674.632 527.687 674.632C528.711 674.632 529.663 674.872 530.543 675.352C531.423 675.816 532.095 676.432 532.559 677.2V670.24H534.767V688H532.559V685.528C532.127 686.312 531.487 686.96 530.639 687.472C529.791 687.968 528.799 688.216 527.663 688.216C526.495 688.216 525.431 687.928 524.471 687.352C523.527 686.776 522.783 685.968 522.239 684.928C521.695 683.888 521.423 682.704 521.423 681.376ZM532.559 681.4C532.559 680.408 532.359 679.544 531.959 678.808C531.559 678.072 531.015 677.512 530.327 677.128C529.655 676.728 528.911 676.528 528.095 676.528C527.279 676.528 526.535 676.72 525.863 677.104C525.191 677.488 524.655 678.048 524.255 678.784C523.855 679.52 523.655 680.384 523.655 681.376C523.655 682.384 523.855 683.264 524.255 684.016C524.655 684.752 525.191 685.32 525.863 685.72C526.535 686.104 527.279 686.296 528.095 686.296C528.911 686.296 529.655 686.104 530.327 685.72C531.015 685.32 531.559 684.752 531.959 684.016C532.359 683.264 532.559 682.392 532.559 681.4ZM539.585 672.712C539.169 672.712 538.817 672.568 538.529 672.28C538.241 671.992 538.097 671.64 538.097 671.224C538.097 670.808 538.241 670.456 538.529 670.168C538.817 669.88 539.169 669.736 539.585 669.736C539.985 669.736 540.321 669.88 540.593 670.168C540.881 670.456 541.025 670.808 541.025 671.224C541.025 671.64 540.881 671.992 540.593 672.28C540.321 672.568 539.985 672.712 539.585 672.712ZM540.641 674.848V688H538.457V674.848H540.641ZM547.028 676.648V684.4C547.028 685.04 547.164 685.496 547.436 685.768C547.708 686.024 548.18 686.152 548.852 686.152H550.46V688H548.492C547.276 688 546.364 687.72 545.756 687.16C545.148 686.6 544.844 685.68 544.844 684.4V676.648H543.14V674.848H544.844V671.536H547.028V674.848H550.46V676.648H547.028ZM554.234 672.712C553.818 672.712 553.466 672.568 553.178 672.28C552.89 671.992 552.746 671.64 552.746 671.224C552.746 670.808 552.89 670.456 553.178 670.168C553.466 669.88 553.818 669.736 554.234 669.736C554.634 669.736 554.97 669.88 555.242 670.168C555.53 670.456 555.674 670.808 555.674 671.224C555.674 671.64 555.53 671.992 555.242 672.28C554.97 672.568 554.634 672.712 554.234 672.712ZM555.29 674.848V688H553.106V674.848H555.29ZM564.748 688.216C563.516 688.216 562.396 687.936 561.388 687.376C560.396 686.816 559.612 686.024 559.036 685C558.476 683.96 558.196 682.76 558.196 681.4C558.196 680.056 558.484 678.872 559.06 677.848C559.652 676.808 560.452 676.016 561.46 675.472C562.468 674.912 563.596 674.632 564.844 674.632C566.092 674.632 567.22 674.912 568.228 675.472C569.236 676.016 570.028 676.8 570.604 677.824C571.196 678.848 571.492 680.04 571.492 681.4C571.492 682.76 571.188 683.96 570.58 685C569.988 686.024 569.18 686.816 568.156 687.376C567.132 687.936 565.996 688.216 564.748 688.216ZM564.748 686.296C565.532 686.296 566.268 686.112 566.956 685.744C567.644 685.376 568.196 684.824 568.612 684.088C569.044 683.352 569.26 682.456 569.26 681.4C569.26 680.344 569.052 679.448 568.636 678.712C568.22 677.976 567.676 677.432 567.004 677.08C566.332 676.712 565.604 676.528 564.82 676.528C564.02 676.528 563.284 676.712 562.612 677.08C561.956 677.432 561.428 677.976 561.028 678.712C560.628 679.448 560.428 680.344 560.428 681.4C560.428 682.472 560.62 683.376 561.004 684.112C561.404 684.848 561.932 685.4 562.588 685.768C563.244 686.12 563.964 686.296 564.748 686.296ZM580.772 674.608C582.372 674.608 583.668 675.096 584.66 676.072C585.652 677.032 586.148 678.424 586.148 680.248V688H583.988V680.56C583.988 679.248 583.66 678.248 583.004 677.56C582.348 676.856 581.452 676.504 580.316 676.504C579.164 676.504 578.244 676.864 577.556 677.584C576.884 678.304 576.548 679.352 576.548 680.728V688H574.364V674.848H576.548V676.72C576.98 676.048 577.564 675.528 578.3 675.16C579.052 674.792 579.876 674.608 580.772 674.608ZM594.371 688.216C593.363 688.216 592.459 688.048 591.659 687.712C590.859 687.36 590.227 686.88 589.763 686.272C589.299 685.648 589.043 684.936 588.995 684.136H591.251C591.315 684.792 591.619 685.328 592.163 685.744C592.723 686.16 593.451 686.368 594.347 686.368C595.179 686.368 595.835 686.184 596.315 685.816C596.795 685.448 597.035 684.984 597.035 684.424C597.035 683.848 596.779 683.424 596.267 683.152C595.755 682.864 594.963 682.584 593.891 682.312C592.915 682.056 592.115 681.8 591.491 681.544C590.883 681.272 590.355 680.88 589.907 680.368C589.475 679.84 589.259 679.152 589.259 678.304C589.259 677.632 589.459 677.016 589.859 676.456C590.259 675.896 590.827 675.456 591.563 675.136C592.299 674.8 593.139 674.632 594.083 674.632C595.539 674.632 596.715 675 597.611 675.736C598.507 676.472 598.987 677.48 599.051 678.76H596.867C596.819 678.072 596.539 677.52 596.027 677.104C595.531 676.688 594.859 676.48 594.011 676.48C593.227 676.48 592.603 676.648 592.139 676.984C591.675 677.32 591.443 677.76 591.443 678.304C591.443 678.736 591.579 679.096 591.851 679.384C592.139 679.656 592.491 679.88 592.907 680.056C593.339 680.216 593.931 680.4 594.683 680.608C595.627 680.864 596.395 681.12 596.987 681.376C597.579 681.616 598.083 681.984 598.499 682.48C598.931 682.976 599.155 683.624 599.171 684.424C599.171 685.144 598.971 685.792 598.571 686.368C598.171 686.944 597.603 687.4 596.867 687.736C596.147 688.056 595.315 688.216 594.371 688.216ZM621.325 676.12C620.861 675.144 620.189 674.392 619.309 673.864C618.429 673.32 617.405 673.048 616.237 673.048C615.069 673.048 614.013 673.32 613.069 673.864C612.141 674.392 611.405 675.16 610.861 676.168C610.333 677.16 610.069 678.312 610.069 679.624C610.069 680.936 610.333 682.088 610.861 683.08C611.405 684.072 612.141 684.84 613.069 685.384C614.013 685.912 615.069 686.176 616.237 686.176C617.869 686.176 619.213 685.688 620.269 684.712C621.325 683.736 621.941 682.416 622.117 680.752H615.445V678.976H624.445V680.656C624.317 682.032 623.885 683.296 623.149 684.448C622.413 685.584 621.445 686.488 620.245 687.16C619.045 687.816 617.709 688.144 616.237 688.144C614.685 688.144 613.269 687.784 611.989 687.064C610.709 686.328 609.693 685.312 608.941 684.016C608.205 682.72 607.837 681.256 607.837 679.624C607.837 677.992 608.205 676.528 608.941 675.232C609.693 673.92 610.709 672.904 611.989 672.184C613.269 671.448 614.685 671.08 616.237 671.08C618.013 671.08 619.581 671.52 620.941 672.4C622.317 673.28 623.317 674.52 623.941 676.12H621.325ZM633.068 688.216C631.836 688.216 630.716 687.936 629.708 687.376C628.716 686.816 627.932 686.024 627.356 685C626.796 683.96 626.516 682.76 626.516 681.4C626.516 680.056 626.804 678.872 627.38 677.848C627.972 676.808 628.772 676.016 629.78 675.472C630.788 674.912 631.916 674.632 633.164 674.632C634.412 674.632 635.54 674.912 636.548 675.472C637.556 676.016 638.348 676.8 638.924 677.824C639.516 678.848 639.812 680.04 639.812 681.4C639.812 682.76 639.508 683.96 638.9 685C638.308 686.024 637.5 686.816 636.476 687.376C635.452 687.936 634.316 688.216 633.068 688.216ZM633.068 686.296C633.852 686.296 634.588 686.112 635.276 685.744C635.964 685.376 636.516 684.824 636.932 684.088C637.364 683.352 637.58 682.456 637.58 681.4C637.58 680.344 637.372 679.448 636.956 678.712C636.54 677.976 635.996 677.432 635.324 677.08C634.652 676.712 633.924 676.528 633.14 676.528C632.34 676.528 631.604 676.712 630.932 677.08C630.276 677.432 629.748 677.976 629.348 678.712C628.948 679.448 628.748 680.344 628.748 681.4C628.748 682.472 628.94 683.376 629.324 684.112C629.724 684.848 630.252 685.4 630.908 685.768C631.564 686.12 632.284 686.296 633.068 686.296ZM641.868 681.376C641.868 680.032 642.14 678.856 642.684 677.848C643.228 676.824 643.972 676.032 644.916 675.472C645.876 674.912 646.94 674.632 648.108 674.632C649.26 674.632 650.26 674.88 651.108 675.376C651.956 675.872 652.588 676.496 653.004 677.248V674.848H655.212V688H653.004V685.552C652.572 686.32 651.924 686.96 651.06 687.472C650.212 687.968 649.22 688.216 648.084 688.216C646.916 688.216 645.86 687.928 644.916 687.352C643.972 686.776 643.228 685.968 642.684 684.928C642.14 683.888 641.868 682.704 641.868 681.376ZM653.004 681.4C653.004 680.408 652.804 679.544 652.404 678.808C652.004 678.072 651.46 677.512 650.772 677.128C650.1 676.728 649.356 676.528 648.54 676.528C647.724 676.528 646.98 676.72 646.308 677.104C645.636 677.488 645.1 678.048 644.7 678.784C644.3 679.52 644.1 680.384 644.1 681.376C644.1 682.384 644.3 683.264 644.7 684.016C645.1 684.752 645.636 685.32 646.308 685.72C646.98 686.104 647.724 686.296 648.54 686.296C649.356 686.296 650.1 686.104 650.772 685.72C651.46 685.32 652.004 684.752 652.404 684.016C652.804 683.264 653.004 682.392 653.004 681.4ZM661.087 670.24V688H658.903V670.24H661.087Z" fill="black"/>
<path id="Deletions Goal" d="M262.056 664.272C263.88 664.272 265.456 664.616 266.784 665.304C268.128 665.976 269.152 666.944 269.856 668.208C270.576 669.472 270.936 670.96 270.936 672.672C270.936 674.384 270.576 675.872 269.856 677.136C269.152 678.384 268.128 679.344 266.784 680.016C265.456 680.672 263.88 681 262.056 681H256.848V664.272H262.056ZM262.056 679.2C264.216 679.2 265.864 678.632 267 677.496C268.136 676.344 268.704 674.736 268.704 672.672C268.704 670.592 268.128 668.968 266.976 667.8C265.84 666.632 264.2 666.048 262.056 666.048H259.032V679.2H262.056ZM285.817 673.92C285.817 674.336 285.793 674.776 285.745 675.24H275.233C275.313 676.536 275.753 677.552 276.553 678.288C277.369 679.008 278.353 679.368 279.505 679.368C280.449 679.368 281.233 679.152 281.857 678.72C282.497 678.272 282.945 677.68 283.201 676.944H285.553C285.201 678.208 284.497 679.24 283.441 680.04C282.385 680.824 281.073 681.216 279.505 681.216C278.257 681.216 277.137 680.936 276.145 680.376C275.169 679.816 274.401 679.024 273.841 678C273.281 676.96 273.001 675.76 273.001 674.4C273.001 673.04 273.273 671.848 273.817 670.824C274.361 669.8 275.121 669.016 276.097 668.472C277.089 667.912 278.225 667.632 279.505 667.632C280.753 667.632 281.857 667.904 282.817 668.448C283.777 668.992 284.513 669.744 285.025 670.704C285.553 671.648 285.817 672.72 285.817 673.92ZM283.561 673.464C283.561 672.632 283.377 671.92 283.009 671.328C282.641 670.72 282.137 670.264 281.497 669.96C280.873 669.64 280.177 669.48 279.409 669.48C278.305 669.48 277.361 669.832 276.577 670.536C275.809 671.24 275.369 672.216 275.257 673.464H283.561ZM290.884 663.24V681H288.7V663.24H290.884ZM306.606 673.92C306.606 674.336 306.582 674.776 306.534 675.24H296.022C296.102 676.536 296.542 677.552 297.342 678.288C298.158 679.008 299.142 679.368 300.294 679.368C301.238 679.368 302.022 679.152 302.646 678.72C303.286 678.272 303.734 677.68 303.99 676.944H306.342C305.99 678.208 305.286 679.24 304.23 680.04C303.174 680.824 301.862 681.216 300.294 681.216C299.046 681.216 297.926 680.936 296.934 680.376C295.958 679.816 295.19 679.024 294.63 678C294.07 676.96 293.79 675.76 293.79 674.4C293.79 673.04 294.062 671.848 294.606 670.824C295.15 669.8 295.91 669.016 296.886 668.472C297.878 667.912 299.014 667.632 300.294 667.632C301.542 667.632 302.646 667.904 303.606 668.448C304.566 668.992 305.302 669.744 305.814 670.704C306.342 671.648 306.606 672.72 306.606 673.92ZM304.35 673.464C304.35 672.632 304.166 671.92 303.798 671.328C303.43 670.72 302.926 670.264 302.286 669.96C301.662 669.64 300.966 669.48 300.198 669.48C299.094 669.48 298.15 669.832 297.366 670.536C296.598 671.24 296.158 672.216 296.046 673.464H304.35ZM312.153 669.648V677.4C312.153 678.04 312.289 678.496 312.561 678.768C312.833 679.024 313.305 679.152 313.977 679.152H315.585V681H313.617C312.401 681 311.489 680.72 310.881 680.16C310.273 679.6 309.969 678.68 309.969 677.4V669.648H308.265V667.848H309.969V664.536H312.153V667.848H315.585V669.648H312.153ZM319.359 665.712C318.943 665.712 318.591 665.568 318.303 665.28C318.015 664.992 317.871 664.64 317.871 664.224C317.871 663.808 318.015 663.456 318.303 663.168C318.591 662.88 318.943 662.736 319.359 662.736C319.759 662.736 320.095 662.88 320.367 663.168C320.655 663.456 320.799 663.808 320.799 664.224C320.799 664.64 320.655 664.992 320.367 665.28C320.095 665.568 319.759 665.712 319.359 665.712ZM320.415 667.848V681H318.231V667.848H320.415ZM329.873 681.216C328.641 681.216 327.521 680.936 326.513 680.376C325.521 679.816 324.737 679.024 324.161 678C323.601 676.96 323.321 675.76 323.321 674.4C323.321 673.056 323.609 671.872 324.185 670.848C324.777 669.808 325.577 669.016 326.585 668.472C327.593 667.912 328.721 667.632 329.969 667.632C331.217 667.632 332.345 667.912 333.353 668.472C334.361 669.016 335.153 669.8 335.729 670.824C336.321 671.848 336.617 673.04 336.617 674.4C336.617 675.76 336.313 676.96 335.705 678C335.113 679.024 334.305 679.816 333.281 680.376C332.257 680.936 331.121 681.216 329.873 681.216ZM329.873 679.296C330.657 679.296 331.393 679.112 332.081 678.744C332.769 678.376 333.321 677.824 333.737 677.088C334.169 676.352 334.385 675.456 334.385 674.4C334.385 673.344 334.177 672.448 333.761 671.712C333.345 670.976 332.801 670.432 332.129 670.08C331.457 669.712 330.729 669.528 329.945 669.528C329.145 669.528 328.409 669.712 327.737 670.08C327.081 670.432 326.553 670.976 326.153 671.712C325.753 672.448 325.553 673.344 325.553 674.4C325.553 675.472 325.745 676.376 326.129 677.112C326.529 677.848 327.057 678.4 327.713 678.768C328.369 679.12 329.089 679.296 329.873 679.296ZM345.897 667.608C347.497 667.608 348.793 668.096 349.785 669.072C350.777 670.032 351.273 671.424 351.273 673.248V681H349.113V673.56C349.113 672.248 348.785 671.248 348.129 670.56C347.473 669.856 346.577 669.504 345.441 669.504C344.289 669.504 343.369 669.864 342.681 670.584C342.009 671.304 341.673 672.352 341.673 673.728V681H339.489V667.848H341.673V669.72C342.105 669.048 342.689 668.528 343.425 668.16C344.177 667.792 345.001 667.608 345.897 667.608ZM359.496 681.216C358.488 681.216 357.584 681.048 356.784 680.712C355.984 680.36 355.352 679.88 354.888 679.272C354.424 678.648 354.168 677.936 354.12 677.136H356.376C356.44 677.792 356.744 678.328 357.288 678.744C357.848 679.16 358.576 679.368 359.472 679.368C360.304 679.368 360.96 679.184 361.44 678.816C361.92 678.448 362.16 677.984 362.16 677.424C362.16 676.848 361.904 676.424 361.392 676.152C360.88 675.864 360.088 675.584 359.016 675.312C358.04 675.056 357.24 674.8 356.616 674.544C356.008 674.272 355.48 673.88 355.032 673.368C354.6 672.84 354.384 672.152 354.384 671.304C354.384 670.632 354.584 670.016 354.984 669.456C355.384 668.896 355.952 668.456 356.688 668.136C357.424 667.8 358.264 667.632 359.208 667.632C360.664 667.632 361.84 668 362.736 668.736C363.632 669.472 364.112 670.48 364.176 671.76H361.992C361.944 671.072 361.664 670.52 361.152 670.104C360.656 669.688 359.984 669.48 359.136 669.48C358.352 669.48 357.728 669.648 357.264 669.984C356.8 670.32 356.568 670.76 356.568 671.304C356.568 671.736 356.704 672.096 356.976 672.384C357.264 672.656 357.616 672.88 358.032 673.056C358.464 673.216 359.056 673.4 359.808 673.608C360.752 673.864 361.52 674.12 362.112 674.376C362.704 674.616 363.208 674.984 363.624 675.48C364.056 675.976 364.28 676.624 364.296 677.424C364.296 678.144 364.096 678.792 363.696 679.368C363.296 679.944 362.728 680.4 361.992 680.736C361.272 681.056 360.44 681.216 359.496 681.216ZM386.45 669.12C385.986 668.144 385.314 667.392 384.434 666.864C383.554 666.32 382.53 666.048 381.362 666.048C380.194 666.048 379.138 666.32 378.194 666.864C377.266 667.392 376.53 668.16 375.986 669.168C375.458 670.16 375.194 671.312 375.194 672.624C375.194 673.936 375.458 675.088 375.986 676.08C376.53 677.072 377.266 677.84 378.194 678.384C379.138 678.912 380.194 679.176 381.362 679.176C382.994 679.176 384.338 678.688 385.394 677.712C386.45 676.736 387.066 675.416 387.242 673.752H380.57V671.976H389.57V673.656C389.442 675.032 389.01 676.296 388.274 677.448C387.538 678.584 386.57 679.488 385.37 680.16C384.17 680.816 382.834 681.144 381.362 681.144C379.81 681.144 378.394 680.784 377.114 680.064C375.834 679.328 374.818 678.312 374.066 677.016C373.33 675.72 372.962 674.256 372.962 672.624C372.962 670.992 373.33 669.528 374.066 668.232C374.818 666.92 375.834 665.904 377.114 665.184C378.394 664.448 379.81 664.08 381.362 664.08C383.138 664.08 384.706 664.52 386.066 665.4C387.442 666.28 388.442 667.52 389.066 669.12H386.45ZM398.193 681.216C396.961 681.216 395.841 680.936 394.833 680.376C393.841 679.816 393.057 679.024 392.481 678C391.921 676.96 391.641 675.76 391.641 674.4C391.641 673.056 391.929 671.872 392.505 670.848C393.097 669.808 393.897 669.016 394.905 668.472C395.913 667.912 397.041 667.632 398.289 667.632C399.537 667.632 400.665 667.912 401.673 668.472C402.681 669.016 403.473 669.8 404.049 670.824C404.641 671.848 404.937 673.04 404.937 674.4C404.937 675.76 404.633 676.96 404.025 678C403.433 679.024 402.625 679.816 401.601 680.376C400.577 680.936 399.441 681.216 398.193 681.216ZM398.193 679.296C398.977 679.296 399.713 679.112 400.401 678.744C401.089 678.376 401.641 677.824 402.057 677.088C402.489 676.352 402.705 675.456 402.705 674.4C402.705 673.344 402.497 672.448 402.081 671.712C401.665 670.976 401.121 670.432 400.449 670.08C399.777 669.712 399.049 669.528 398.265 669.528C397.465 669.528 396.729 669.712 396.057 670.08C395.401 670.432 394.873 670.976 394.473 671.712C394.073 672.448 393.873 673.344 393.873 674.4C393.873 675.472 394.065 676.376 394.449 677.112C394.849 677.848 395.377 678.4 396.033 678.768C396.689 679.12 397.409 679.296 398.193 679.296ZM406.993 674.376C406.993 673.032 407.265 671.856 407.809 670.848C408.353 669.824 409.097 669.032 410.041 668.472C411.001 667.912 412.065 667.632 413.233 667.632C414.385 667.632 415.385 667.88 416.233 668.376C417.081 668.872 417.713 669.496 418.129 670.248V667.848H420.337V681H418.129V678.552C417.697 679.32 417.049 679.96 416.185 680.472C415.337 680.968 414.345 681.216 413.209 681.216C412.041 681.216 410.985 680.928 410.041 680.352C409.097 679.776 408.353 678.968 407.809 677.928C407.265 676.888 406.993 675.704 406.993 674.376ZM418.129 674.4C418.129 673.408 417.929 672.544 417.529 671.808C417.129 671.072 416.585 670.512 415.897 670.128C415.225 669.728 414.481 669.528 413.665 669.528C412.849 669.528 412.105 669.72 411.433 670.104C410.761 670.488 410.225 671.048 409.825 671.784C409.425 672.52 409.225 673.384 409.225 674.376C409.225 675.384 409.425 676.264 409.825 677.016C410.225 677.752 410.761 678.32 411.433 678.72C412.105 679.104 412.849 679.296 413.665 679.296C414.481 679.296 415.225 679.104 415.897 678.72C416.585 678.32 417.129 677.752 417.529 677.016C417.929 676.264 418.129 675.392 418.129 674.4ZM426.212 663.24V681H424.028V663.24H426.212Z" fill="black"/>
<path id="69" d="M116.476 612.164C115.948 609.5 114.304 608.168 111.544 608.168C109.408 608.168 107.812 608.996 106.756 610.652C105.7 612.284 105.184 614.984 105.208 618.752C105.76 617.504 106.672 616.532 107.944 615.836C109.24 615.116 110.68 614.756 112.264 614.756C114.736 614.756 116.704 615.524 118.168 617.06C119.656 618.596 120.4 620.72 120.4 623.432C120.4 625.064 120.076 626.528 119.428 627.824C118.804 629.12 117.844 630.152 116.548 630.92C115.276 631.688 113.728 632.072 111.904 632.072C109.432 632.072 107.5 631.52 106.108 630.416C104.716 629.312 103.744 627.788 103.192 625.844C102.64 623.9 102.364 621.5 102.364 618.644C102.364 609.836 105.436 605.432 111.58 605.432C113.932 605.432 115.78 606.068 117.124 607.34C118.468 608.612 119.26 610.22 119.5 612.164H116.476ZM111.58 617.528C110.548 617.528 109.576 617.744 108.664 618.176C107.752 618.584 107.008 619.22 106.432 620.084C105.88 620.924 105.604 621.956 105.604 623.18C105.604 625.004 106.132 626.492 107.188 627.644C108.244 628.772 109.756 629.336 111.724 629.336C113.404 629.336 114.736 628.82 115.72 627.788C116.728 626.732 117.232 625.316 117.232 623.54C117.232 621.668 116.752 620.204 115.792 619.148C114.832 618.068 113.428 617.528 111.58 617.528ZM129.032 625.016C129.272 626.384 129.824 627.44 130.688 628.184C131.576 628.928 132.764 629.3 134.252 629.3C136.244 629.3 137.708 628.52 138.644 626.96C139.604 625.4 140.06 622.772 140.012 619.076C139.508 620.156 138.668 621.008 137.492 621.632C136.316 622.232 135.008 622.532 133.568 622.532C131.96 622.532 130.52 622.208 129.248 621.56C128 620.888 127.016 619.916 126.296 618.644C125.576 617.372 125.216 615.836 125.216 614.036C125.216 611.468 125.96 609.404 127.448 607.844C128.936 606.26 131.048 605.468 133.784 605.468C137.144 605.468 139.496 606.56 140.84 608.744C142.208 610.928 142.892 614.18 142.892 618.5C142.892 621.524 142.616 624.02 142.064 625.988C141.536 627.956 140.624 629.456 139.328 630.488C138.056 631.52 136.304 632.036 134.072 632.036C131.624 632.036 129.716 631.376 128.348 630.056C126.98 628.736 126.2 627.056 126.008 625.016H129.032ZM134.108 619.76C135.716 619.76 137.036 619.268 138.068 618.284C139.1 617.276 139.616 615.92 139.616 614.216C139.616 612.416 139.112 610.964 138.104 609.86C137.096 608.756 135.68 608.204 133.856 608.204C132.176 608.204 130.832 608.732 129.824 609.788C128.84 610.844 128.348 612.236 128.348 613.964C128.348 615.716 128.84 617.12 129.824 618.176C130.808 619.232 132.236 619.76 134.108 619.76Z" fill="black"/>
<path id="50" d="M338.723 608.816H326.087V617.024C326.639 616.256 327.455 615.632 328.535 615.152C329.615 614.648 330.779 614.396 332.027 614.396C334.019 614.396 335.639 614.816 336.887 615.656C338.135 616.472 339.023 617.54 339.551 618.86C340.103 620.156 340.379 621.536 340.379 623C340.379 624.728 340.055 626.276 339.407 627.644C338.759 629.012 337.763 630.092 336.419 630.884C335.099 631.676 333.455 632.072 331.487 632.072C328.967 632.072 326.927 631.424 325.367 630.128C323.807 628.832 322.859 627.104 322.523 624.944H325.727C326.039 626.312 326.699 627.38 327.707 628.148C328.715 628.916 329.987 629.3 331.523 629.3C333.419 629.3 334.847 628.736 335.807 627.608C336.767 626.456 337.247 624.944 337.247 623.072C337.247 621.2 336.767 619.76 335.807 618.752C334.847 617.72 333.431 617.204 331.559 617.204C330.287 617.204 329.171 617.516 328.211 618.14C327.275 618.74 326.591 619.568 326.159 620.624H323.063V605.936H338.723V608.816ZM344.732 618.716C344.732 614.588 345.404 611.372 346.748 609.068C348.092 606.74 350.444 605.576 353.804 605.576C357.14 605.576 359.48 606.74 360.824 609.068C362.168 611.372 362.84 614.588 362.84 618.716C362.84 622.916 362.168 626.18 360.824 628.508C359.48 630.836 357.14 632 353.804 632C350.444 632 348.092 630.836 346.748 628.508C345.404 626.18 344.732 622.916 344.732 618.716ZM359.6 618.716C359.6 616.628 359.456 614.864 359.168 613.424C358.904 611.96 358.34 610.784 357.476 609.896C356.636 609.008 355.412 608.564 353.804 608.564C352.172 608.564 350.924 609.008 350.06 609.896C349.22 610.784 348.656 611.96 348.368 613.424C348.104 614.864 347.972 616.628 347.972 618.716C347.972 620.876 348.104 622.688 348.368 624.152C348.656 625.616 349.22 626.792 350.06 627.68C350.924 628.568 352.172 629.012 353.804 629.012C355.412 629.012 356.636 628.568 357.476 627.68C358.34 626.792 358.904 625.616 359.168 624.152C359.456 622.688 359.6 620.876 359.6 618.716Z" fill="black"/>
<path id="1000" d="M530.194 608.96V605.972H536.962V632H533.65V608.96H530.194ZM542.589 618.716C542.589 614.588 543.261 611.372 544.605 609.068C545.949 606.74 548.301 605.576 551.661 605.576C554.997 605.576 557.337 606.74 558.681 609.068C560.025 611.372 560.697 614.588 560.697 618.716C560.697 622.916 560.025 626.18 558.681 628.508C557.337 630.836 554.997 632 551.661 632C548.301 632 545.949 630.836 544.605 628.508C543.261 626.18 542.589 622.916 542.589 618.716ZM557.457 618.716C557.457 616.628 557.313 614.864 557.025 613.424C556.761 611.96 556.197 610.784 555.333 609.896C554.493 609.008 553.269 608.564 551.661 608.564C550.029 608.564 548.781 609.008 547.917 609.896C547.077 610.784 546.513 611.96 546.225 613.424C545.961 614.864 545.829 616.628 545.829 618.716C545.829 620.876 545.961 622.688 546.225 624.152C546.513 625.616 547.077 626.792 547.917 627.68C548.781 628.568 550.029 629.012 551.661 629.012C553.269 629.012 554.493 628.568 555.333 627.68C556.197 626.792 556.761 625.616 557.025 624.152C557.313 622.688 557.457 620.876 557.457 618.716ZM565.195 618.716C565.195 614.588 565.867 611.372 567.211 609.068C568.555 606.74 570.907 605.576 574.267 605.576C577.603 605.576 579.943 606.74 581.287 609.068C582.631 611.372 583.303 614.588 583.303 618.716C583.303 622.916 582.631 626.18 581.287 628.508C579.943 630.836 577.603 632 574.267 632C570.907 632 568.555 630.836 567.211 628.508C565.867 626.18 565.195 622.916 565.195 618.716ZM580.063 618.716C580.063 616.628 579.919 614.864 579.631 613.424C579.367 611.96 578.803 610.784 577.939 609.896C577.099 609.008 575.875 608.564 574.267 608.564C572.635 608.564 571.387 609.008 570.523 609.896C569.683 610.784 569.119 611.96 568.831 613.424C568.567 614.864 568.435 616.628 568.435 618.716C568.435 620.876 568.567 622.688 568.831 624.152C569.119 625.616 569.683 626.792 570.523 627.68C571.387 628.568 572.635 629.012 574.267 629.012C575.875 629.012 577.099 628.568 577.939 627.68C578.803 626.792 579.367 625.616 579.631 624.152C579.919 622.688 580.063 620.876 580.063 618.716ZM587.8 618.716C587.8 614.588 588.472 611.372 589.816 609.068C591.16 606.74 593.512 605.576 596.872 605.576C600.208 605.576 602.548 606.74 603.892 609.068C605.236 611.372 605.908 614.588 605.908 618.716C605.908 622.916 605.236 626.18 603.892 628.508C602.548 630.836 600.208 632 596.872 632C593.512 632 591.16 630.836 589.816 628.508C588.472 626.18 587.8 622.916 587.8 618.716ZM602.668 618.716C602.668 616.628 602.524 614.864 602.236 613.424C601.972 611.96 601.408 610.784 600.544 609.896C599.704 609.008 598.48 608.564 596.872 608.564C595.24 608.564 593.992 609.008 593.128 609.896C592.288 610.784 591.724 611.96 591.436 613.424C591.172 614.864 591.04 616.628 591.04 618.716C591.04 620.876 591.172 622.688 591.436 624.152C591.724 625.616 592.288 626.792 593.128 627.68C593.992 628.568 595.24 629.012 596.872 629.012C598.48 629.012 599.704 628.568 600.544 627.68C601.408 626.792 601.972 625.616 602.236 624.152C602.524 622.688 602.668 620.876 602.668 618.716Z" fill="black"/>
<defs>
<filter id="filter0_d_0_1" x="961" y="135" width="442" height="442" filterUnits="userSpaceOnUse" color-interpolation-filters="sRGB">
<feFlood flood-opacity="0" result="BackgroundImageFix"/>
<feColorMatrix in="SourceAlpha" type="matrix" values="0 0 0 0 0 0 0 0 0 0 0 0 0 0 0 0 0 0 127 0" result="hardAlpha"/>
<feOffset dy="4"/>
<feGaussianBlur stdDeviation="2"/>
<feComposite in2="hardAlpha" operator="out"/>
<feColorMatrix type="matrix" values="0 0 0 0 0 0 0 0 0 0 0 0 0 0 0 0 0 0 0.25 0"/>
<feBlend mode="normal" in2="BackgroundImageFix" result="effect1_dropShadow_0_1"/>
<feBlend mode="normal" in="SourceGraphic" in2="effect1_dropShadow_0_1" result="shape"/>
</filter>
<filter id="filter1_d_0_1" x="980" y="154" width="404" height="404" filterUnits="userSpaceOnUse" color-interpolation-filters="sRGB">
<feFlood flood-opacity="0" result="BackgroundImageFix"/>
<feColorMatrix in="SourceAlpha" type="matrix" values="0 0 0 0 0 0 0 0 0 0 0 0 0 0 0 0 0 0 127 0" result="hardAlpha"/>
<feOffset dy="4"/>
<feGaussianBlur stdDeviation="2"/>
<feComposite in2="hardAlpha" operator="out"/>
<feColorMatrix type="matrix" values="0 0 0 0 0 0 0 0 0 0 0 0 0 0 0 0 0 0 0.25 0"/>
<feBlend mode="normal" in2="BackgroundImageFix" result="effect1_dropShadow_0_1"/>
<feBlend mode="normal" in="SourceGraphic" in2="effect1_dropShadow_0_1" result="shape"/>
</filter>
<filter id="filter2_d_0_1" x="998" y="172" width="368" height="368" filterUnits="userSpaceOnUse" color-interpolation-filters="sRGB">
<feFlood flood-opacity="0" result="BackgroundImageFix"/>
<feColorMatrix in="SourceAlpha" type="matrix" values="0 0 0 0 0 0 0 0 0 0 0 0 0 0 0 0 0 0 127 0" result="hardAlpha"/>
<feOffset dy="4"/>
<feGaussianBlur stdDeviation="2"/>
<feComposite in2="hardAlpha" operator="out"/>
<feColorMatrix type="matrix" values="0 0 0 0 0 0 0 0 0 0 0 0 0 0 0 0 0 0 0.25 0"/>
<feBlend mode="normal" in2="BackgroundImageFix" result="effect1_dropShadow_0_1"/>
<feBlend mode="normal" in="SourceGraphic" in2="effect1_dropShadow_0_1" result="shape"/>
</filter>
<radialGradient id="paint0_angular_0_1" cx="0" cy="0" r="1" gradientUnits="userSpaceOnUse" gradientTransform="translate(1182 352) rotate(-90) scale(217)">
<stop stop-color="#7400B8"/>
<stop offset="0.09375" stop-color="#6930C3"/>
<stop offset="0.197917" stop-color="#5E60CE"/>
<stop offset="0.328125" stop-color="#5390D9"/>
<stop offset="0.458333" stop-color="#5390D9"/>
<stop offset="0.583333" stop-color="#4EA8DE"/>
<stop offset="0.682292" stop-color="#48BFE3"/>
<stop offset="0.807292" stop-color="#56CFE1"/>
<stop offset="0.895833" stop-color="#64DFDF"/>
<stop offset="1" stop-color="#72EFDD"/>
</radialGradient>
</defs>
</svg>
